<svg width="83" height="24" viewBox="0 0 83 24" fill="none" xmlns="http://www.w3.org/2000/svg">
<path d="M12 22C17.5228 22 22 17.5228 22 12C22 6.47715 17.5228 2 12 2C6.47715 2 2 6.47715 2 12C2 17.5228 6.47715 22 12 22Z" stroke="#252A3F" stroke-width="1.5" stroke-linecap="round" stroke-linejoin="round"/>
<path d="M7.99961 3H8.99961C7.04961 8.84 7.04961 15.16 8.99961 21H7.99961" stroke="#252A3F" stroke-width="1.5" stroke-linecap="round" stroke-linejoin="round"/>
<path d="M15 3C16.95 8.84 16.95 15.16 15 21" stroke="#252A3F" stroke-width="1.5" stroke-linecap="round" stroke-linejoin="round"/>
<path d="M3 16V15C8.84 16.95 15.16 16.95 21 15V16" stroke="#252A3F" stroke-width="1.5" stroke-linecap="round" stroke-linejoin="round"/>
<path d="M3 9.0001C8.84 7.0501 15.16 7.0501 21 9.0001" stroke="#252A3F" stroke-width="1.5" stroke-linecap="round" stroke-linejoin="round"/>
<path d="M31.568 18V6.8H38.624V8.464H33.296V16.336H38.624V18H31.568ZM32.352 13.088V11.424H37.744V13.088H32.352ZM40.4801 18V9.6H42.1281V11.328L41.8401 11.52C41.9468 11.1467 42.1548 10.8053 42.4641 10.496C42.7735 10.176 43.1415 9.92 43.5681 9.728C43.9948 9.52533 44.4321 9.424 44.8801 9.424C45.5201 9.424 46.0535 9.552 46.4801 9.808C46.9068 10.0533 47.2268 10.432 47.4401 10.944C47.6535 11.456 47.7601 12.1013 47.7601 12.88V18H46.1121V12.992C46.1121 12.512 46.0481 12.1173 45.9201 11.808C45.7921 11.488 45.5948 11.2587 45.3281 11.12C45.0615 10.9707 44.7308 10.9067 44.3361 10.928C44.0161 10.928 43.7228 10.9813 43.4561 11.088C43.1895 11.184 42.9548 11.3227 42.7521 11.504C42.5601 11.6853 42.4055 11.8987 42.2881 12.144C42.1815 12.3787 42.1281 12.6347 42.1281 12.912V18H41.3121C41.1735 18 41.0348 18 40.8961 18C40.7575 18 40.6188 18 40.4801 18ZM53.2558 21.68C52.6584 21.68 52.0611 21.584 51.4638 21.392C50.8771 21.2107 50.4024 20.9707 50.0398 20.672L50.6478 19.392C50.9678 19.6373 51.3624 19.8347 51.8318 19.984C52.3118 20.1333 52.7864 20.208 53.2558 20.208C53.8424 20.208 54.3331 20.112 54.7278 19.92C55.1224 19.728 55.4211 19.4453 55.6238 19.072C55.8264 18.6987 55.9278 18.2347 55.9278 17.68V16.064L56.1038 16.176C56.0504 16.5067 55.8744 16.8267 55.5758 17.136C55.2878 17.4347 54.9251 17.68 54.4878 17.872C54.0504 18.064 53.6024 18.16 53.1438 18.16C52.3438 18.16 51.6291 17.9733 50.9998 17.6C50.3811 17.216 49.8904 16.6987 49.5278 16.048C49.1651 15.3867 48.9838 14.6347 48.9838 13.792C48.9838 12.9493 49.1598 12.2027 49.5118 11.552C49.8744 10.8907 50.3651 10.3733 50.9838 10C51.6131 9.616 52.3171 9.424 53.0958 9.424C53.4158 9.424 53.7251 9.46667 54.0238 9.552C54.3224 9.62667 54.5998 9.73867 54.8558 9.888C55.1118 10.0267 55.3411 10.1813 55.5438 10.352C55.7464 10.5227 55.9118 10.704 56.0398 10.896C56.1678 11.088 56.2478 11.2693 56.2798 11.44L55.9278 11.568V9.6H57.5758V17.488C57.5758 18.16 57.4744 18.752 57.2718 19.264C57.0798 19.7867 56.7971 20.224 56.4237 20.576C56.0504 20.9387 55.5971 21.2107 55.0638 21.392C54.5304 21.584 53.9278 21.68 53.2558 21.68ZM53.3198 16.64C53.8424 16.64 54.3064 16.5173 54.7118 16.272C55.1171 16.0267 55.4318 15.6907 55.6558 15.264C55.8798 14.8373 55.9918 14.3467 55.9918 13.792C55.9918 13.2373 55.8744 12.7467 55.6398 12.32C55.4158 11.8827 55.1011 11.5413 54.6958 11.296C54.3011 11.0507 53.8424 10.928 53.3198 10.928C52.8078 10.928 52.3491 11.056 51.9438 11.312C51.5491 11.5573 51.2344 11.8987 50.9998 12.336C50.7758 12.7627 50.6638 13.248 50.6638 13.792C50.6638 14.336 50.7758 14.8267 50.9998 15.264C51.2344 15.6907 51.5491 16.0267 51.9438 16.272C52.3491 16.5173 52.8078 16.64 53.3198 16.64ZM59.4184 18V6.16H61.0664V18H59.4184ZM63.174 18V9.6H64.822V18H63.174ZM63.974 7.744C63.622 7.744 63.35 7.65333 63.158 7.472C62.966 7.29067 62.87 7.03467 62.87 6.704C62.87 6.39467 62.966 6.144 63.158 5.952C63.3607 5.76 63.6327 5.664 63.974 5.664C64.326 5.664 64.598 5.75467 64.79 5.936C64.982 6.11733 65.078 6.37333 65.078 6.704C65.078 7.01333 64.9767 7.264 64.774 7.456C64.582 7.648 64.3153 7.744 63.974 7.744ZM69.6551 18.16C68.9511 18.16 68.3165 18.0373 67.7511 17.792C67.1858 17.5467 66.7165 17.184 66.3431 16.704L67.4631 15.744C67.7831 16.1173 68.1298 16.3893 68.5031 16.56C68.8871 16.72 69.3191 16.8 69.7991 16.8C69.9911 16.8 70.1671 16.7787 70.3271 16.736C70.4978 16.6827 70.6418 16.608 70.7591 16.512C70.8871 16.416 70.9831 16.304 71.0471 16.176C71.1111 16.0373 71.1431 15.888 71.1431 15.728C71.1431 15.4507 71.0418 15.2267 70.8391 15.056C70.7325 14.9813 70.5618 14.9013 70.3271 14.816C70.1031 14.72 69.8098 14.624 69.4471 14.528C68.8285 14.368 68.3218 14.1867 67.9271 13.984C67.5325 13.7813 67.2285 13.552 67.0151 13.296C66.8551 13.0933 66.7378 12.8747 66.6631 12.64C66.5885 12.3947 66.5511 12.128 66.5511 11.84C66.5511 11.3707 66.6845 10.9547 66.9511 10.592C67.2178 10.2293 67.5751 9.94667 68.0231 9.744C68.4818 9.53067 68.9938 9.424 69.5591 9.424C69.9538 9.424 70.3431 9.47733 70.7271 9.584C71.1218 9.69067 71.4845 9.84533 71.8151 10.048C72.1458 10.2507 72.4231 10.4907 72.6471 10.768L71.7031 11.808C71.5005 11.6053 71.2765 11.4293 71.0311 11.28C70.7965 11.12 70.5565 10.9973 70.3111 10.912C70.0658 10.8267 69.8418 10.784 69.6391 10.784C69.4151 10.784 69.2125 10.8053 69.0311 10.848C68.8498 10.8907 68.6951 10.9547 68.5671 11.04C68.4498 11.1253 68.3591 11.232 68.2951 11.36C68.2311 11.488 68.1991 11.632 68.1991 11.792C68.2098 11.9307 68.2418 12.064 68.2951 12.192C68.3591 12.3093 68.4445 12.4107 68.5511 12.496C68.6685 12.5813 68.8445 12.672 69.0791 12.768C69.3138 12.864 69.6125 12.9547 69.9751 13.04C70.5085 13.1787 70.9458 13.3333 71.2871 13.504C71.6391 13.664 71.9165 13.8507 72.1191 14.064C72.3325 14.2667 72.4818 14.5013 72.5671 14.768C72.6525 15.0347 72.6951 15.3333 72.6951 15.664C72.6951 16.144 72.5565 16.576 72.2791 16.96C72.0125 17.3333 71.6498 17.6267 71.1911 17.84C70.7325 18.0533 70.2205 18.16 69.6551 18.16ZM74.0114 18V6.16H75.6594V11.328L75.3714 11.52C75.478 11.1467 75.686 10.8053 75.9954 10.496C76.3047 10.176 76.6727 9.92 77.0994 9.728C77.526 9.52533 77.9634 9.424 78.4114 9.424C79.0514 9.424 79.5847 9.552 80.0114 9.808C80.438 10.0533 80.758 10.432 80.9714 10.944C81.1847 11.456 81.2914 12.1013 81.2914 12.88V18H79.6434V12.992C79.6434 12.512 79.5794 12.1173 79.4514 11.808C79.3234 11.488 79.126 11.2587 78.8594 11.12C78.5927 10.9707 78.262 10.9067 77.8674 10.928C77.5474 10.928 77.254 10.9813 76.9874 11.088C76.7207 11.184 76.486 11.3227 76.2834 11.504C76.0914 11.6853 75.9367 11.8987 75.8194 12.144C75.7127 12.3787 75.6594 12.6347 75.6594 12.912V18H74.8434C74.7047 18 74.566 18 74.4274 18C74.2887 18 74.15 18 74.0114 18Z" fill="#242D3C"/>
</svg>
