<svg width="62" height="62" viewBox="0 0 62 62" fill="none" xmlns="http://www.w3.org/2000/svg">
<g style="mix-blend-mode:multiply">
<rect x="0.743164" y="0.0761719" width="61" height="61" rx="15" fill="#BBDCFD"/>
</g>
<path d="M30.5762 21.2428H21.1095C18.5762 21.2428 16.5762 23.2428 16.5762 25.7762V34.8428C16.5762 37.3762 18.5762 39.3762 21.1095 39.3762H30.5762C33.1095 39.3762 35.1095 37.3762 35.1095 34.8428V25.7762C35.2428 23.2428 33.1095 21.2428 30.5762 21.2428Z" fill="#1F8FFF"/>
<path d="M44.576 23.1095C43.6426 22.5762 42.4426 22.5762 41.5093 23.1095L41.376 23.2428L37.9093 25.6428C37.5093 25.9095 37.376 26.3095 37.376 26.7095V34.1762C37.376 34.5762 37.6426 34.9762 37.9093 35.2428L41.2426 37.6428L41.376 37.7762C41.776 38.0428 42.3093 38.1762 42.8426 38.1762C43.376 38.1762 44.0426 38.0428 44.4426 37.7762C45.2426 37.2428 45.776 36.3095 45.776 35.3762V25.5095C45.9093 24.5762 45.376 23.6428 44.576 23.1095Z" fill="#1F8FFF"/>
</svg>
