<svg width="62" height="62" viewBox="0 0 62 62" fill="none" xmlns="http://www.w3.org/2000/svg">
<g style="mix-blend-mode:multiply">
<rect x="0.893555" y="0.0761719" width="61" height="61" rx="15" fill="#EAEDB6"/>
</g>
<path d="M42.2216 26.8239C41.9484 25.9157 41.1289 25.1891 40.2184 25.0983L36.3942 24.5533L34.6642 20.9203C34.2089 19.9212 33.3895 19.3762 32.3879 19.3762C31.3863 19.3762 30.5668 19.9212 30.1116 20.8294L28.3816 24.4625L24.5573 25.0983C23.6468 25.2799 22.8273 25.9157 22.5542 26.8239C22.19 27.823 22.4631 28.8221 23.1915 29.5487L26.0142 32.3643L25.3768 36.3607C25.1947 37.3598 25.65 38.3588 26.4694 38.9038C26.9247 39.1763 27.38 39.3579 27.9263 39.3579C28.3816 39.3579 28.7458 39.2671 29.11 39.0855L32.57 37.1781L36.03 39.0855C36.8495 39.5396 37.851 39.4488 38.6705 38.9038C39.49 38.3588 39.9452 37.3598 39.7631 36.3607L39.1258 32.3643L41.9484 29.5487C42.3126 28.8221 42.5858 27.7322 42.2216 26.8239Z" fill="#99A129"/>
</svg>
